<svg width="93" height="25" viewBox="0 0 93 25" fill="none" xmlns="http://www.w3.org/2000/svg">
<path d="M60.9304 13.259H56.3993V17.7371H54.125V7.28223H56.3993V11.5664H60.9304V7.28223H63.2047V17.7371H60.9304V13.259Z" fill="white"/>
<path d="M68.6349 17.9306C66.3782 17.9306 64.527 17.0315 64.4741 14.5279H66.7485C66.7837 15.6387 67.436 16.3086 68.6702 16.3086C69.6046 16.3086 70.6448 15.8502 70.6448 14.81C70.6448 13.999 69.9396 13.7346 68.7583 13.3996L68.0002 13.188C66.343 12.712 64.7209 12.0773 64.7209 10.1909C64.7209 7.86363 66.8895 7.08789 68.8817 7.08789C70.9269 7.08789 72.6723 7.79311 72.6899 10.1203H70.4156C70.3274 9.16829 69.7809 8.62174 68.7054 8.62174C67.8592 8.62174 67.0305 9.0625 67.0305 9.99692C67.0305 10.755 67.7181 11.0019 69.1991 11.4602L70.063 11.7423C71.8613 12.3065 72.9896 12.9236 72.9896 14.669C72.9896 17.0138 70.6977 17.9306 68.6349 17.9306Z" fill="white"/>
<path d="M74.2764 7.26367H77.9082C79.0542 7.26367 79.5126 7.29893 79.971 7.38709C81.2404 7.66917 82.1924 8.4978 82.1924 9.90824C82.1924 11.2482 81.3462 11.9534 80.1121 12.2707C81.5225 12.5352 82.5803 13.258 82.5803 14.8095C82.5803 17.1896 80.2355 17.7362 78.4019 17.7362H74.294V7.26367H74.2764ZM77.9259 11.6184C78.9308 11.6184 79.9358 11.4245 79.9358 10.208C79.9358 9.11487 78.9837 8.83278 78.0669 8.83278H76.4802V11.6184H77.9259ZM78.1374 16.1671C79.1953 16.1671 80.2355 15.9202 80.2355 14.6508C80.2355 13.3991 79.3363 13.117 78.2609 13.117H76.4625V16.1671H78.1374Z" fill="white"/>
<path d="M88.4872 17.9287C85.1197 17.9287 83.6035 15.7778 83.6035 12.5867C83.6035 9.43084 85.2784 7.06836 88.6106 7.06836C90.691 7.06836 92.7185 8.00277 92.7714 10.3653H90.4265C90.3031 9.32506 89.6155 8.77851 88.6106 8.77851C86.5654 8.77851 85.9484 10.9823 85.9484 12.6572C85.9484 14.3145 86.5654 16.2538 88.54 16.2538C89.5626 16.2538 90.3207 15.7073 90.4794 14.6495H92.8419C92.5774 17.0296 90.6557 17.9287 88.4872 17.9287Z" fill="white"/>
<path d="M37.4644 0H12.4821V24.9824H37.4644V0Z" fill="white"/>
<path d="M37.465 25L49.965 12.5L37.465 0V25Z" fill="#DB0011"/>
<path d="M12.4824 25L0 12.5L12.4824 0V25Z" fill="#DB0011"/>
<path d="M37.4644 0L24.9821 12.5L12.4821 0H37.4644Z" fill="#DB0011"/>
<path d="M12.4821 25L24.9821 12.5L37.4644 25H12.4821Z" fill="#DB0011"/>
</svg>
